<?xml version="1.0" encoding="UTF-8"?>
<!DOCTYPE svg PUBLIC "-//W3C//DTD SVG 1.1//EN" "http://www.w3.org/Graphics/SVG/1.1/DTD/svg11.dtd">
<!-- Creator: CorelDRAW -->
<svg xmlns="http://www.w3.org/2000/svg" xml:space="preserve" width="55.6625mm" height="39.5978mm" version="1.1" style="shape-rendering:geometricPrecision; text-rendering:geometricPrecision; image-rendering:optimizeQuality; fill-rule:evenodd; clip-rule:evenodd"
viewBox="0 0 27917.77 19860.45"
 xmlns:xlink="http://www.w3.org/1999/xlink"
 xmlns:xodm="http://www.corel.com/coreldraw/odm/2003">
 <defs>
  <style type="text/css">
   <![CDATA[
    .str1 {stroke:#7B7E7F;stroke-width:501.55;stroke-miterlimit:10}
    .str0 {stroke:#222124;stroke-width:259.45;stroke-miterlimit:10}
    .fil1 {fill:none;fill-rule:nonzero}
    .fil0 {fill:#FEFEFE}
   ]]>
  </style>
 </defs>
 <g id="Capa_x0020_1">
  <metadata id="CorelCorpID_0Corel-Layer"/>
  <path class="fil0" d="M346.82 7580.59l6457.96 -3346.77 1488.11 -1172.58c0,0 855.9,242.8 2161.4,242.8 1305.5,0 7609.88,2.06 8049.85,-61.29 439.96,-63.35 1026.38,-177.8 1026.38,-177.8l1559.23 1155.78 6577.23 3385.09 0 6912.97 0 1441.82c0,0 -7.82,887.15 -63.75,1117.16 -55.92,230.01 -189.84,1188.18 -976.88,1711.86 -787.04,523.67 -901.74,820.04 -2418.6,820.04 -1516.85,0 -19995.62,0 -19995.62,0 0,0 -1654.13,174.04 -2535.16,-520.96 -881.03,-695 -1357.01,-1452.8 -1426.22,-2646.2l96.05 -8861.91z"/>
  <path class="fil1 str0" d="M19525.61 3061.24c-660.7,156.79 -1348.48,242.8 -2057.07,242.8l-7118.71 0c-708.5,0 -1396.43,-86.02 -2056.92,-242.8l-1492.12 1119.17c250.02,3493.98 3161.55,6251.37 6719.22,6251.37l778.36 0c3557.68,0 6469.35,-2757.4 6719.32,-6251.37l-1492.07 -1119.17z"/>
  <path class="fil1 str0" d="M9513.78 6155.02c-887,-1064.3 -986.06,-1890.41 -1225.85,-3090.08l-1487.16 1115.46c205.64,2873.45 2212.11,5247.21 4896.93,6000.3 328.42,-1942.27 -995.99,-2600.11 -2183.92,-4025.68z"/>
  <path class="fil1 str0" d="M18304.73 6155.02c887,-1064.3 986.06,-1890.41 1225.8,-3090.08l1487.16 1115.46c-205.59,2873.45 -2212.06,5247.21 -4897.08,6000.3 -328.22,-1942.27 996.19,-2600.11 2184.12,-4025.68z"/>
  <path class="fil1 str0" d="M11778.4 9320.03c0,0 1637.17,1026.78 4319.39,0"/>
  <path class="fil1 str0" d="M8800.87 4729.41c0,0 5763.21,712.91 10365.87,0"/>
  <path class="fil1 str0" d="M9068.96 5442.32c0,0 5465.09,712.71 9829.76,0"/>
  <path class="fil1 str0" d="M21017.68 4180.41c0,0 3939.71,2212.21 6553.26,3400.19"/>
  <path class="fil1 str0" d="M6900.23 4180.41c0,0 -3939.86,2212.21 -6553.41,3400.19"/>
  <path class="fil1 str1" d="M24499.83 19609.67l-21081.88 0c-1749.22,0 -3167.17,-1417.99 -3167.17,-3167.17l0 -7400.74 0 -5623.63c0,-1749.22 1417.94,-3167.37 3167.17,-3167.37l21081.88 0c1749.22,0 3167.17,1418.14 3167.17,3167.37l0 13024.36c0,1749.17 -1417.94,3167.17 -3167.17,3167.17z"/>
 </g>
</svg>
