<?xml version="1.0" encoding="UTF-8"?>
<!DOCTYPE svg PUBLIC "-//W3C//DTD SVG 1.1//EN" "http://www.w3.org/Graphics/SVG/1.1/DTD/svg11.dtd">
<!-- Creator: CorelDRAW -->
<svg xmlns="http://www.w3.org/2000/svg" xml:space="preserve" width="55.6626mm" height="39.5978mm" version="1.1" style="shape-rendering:geometricPrecision; text-rendering:geometricPrecision; image-rendering:optimizeQuality; fill-rule:evenodd; clip-rule:evenodd"
viewBox="0 0 2947.09 2096.53"
 xmlns:xlink="http://www.w3.org/1999/xlink"
 xmlns:xodm="http://www.corel.com/coreldraw/odm/2003">
 <defs>
  <style type="text/css">
   <![CDATA[
    .str0 {stroke:#373435;stroke-width:10.59;stroke-miterlimit:22.9256}
    .str2 {stroke:#7B7E7F;stroke-width:52.95;stroke-miterlimit:10}
    .str1 {stroke:#222124;stroke-width:26.83;stroke-miterlimit:10}
    .fil1 {fill:none;fill-rule:nonzero}
    .fil0 {fill:#FEFEFE}
   ]]>
  </style>
 </defs>
 <g id="Capa_x0020_1">
  <metadata id="CorelCorpID_0Corel-Layer"/>
  <path class="fil0 str0" d="M1606.06 981.5c-55.1,39.66 -128.45,110.58 -144.32,214.42l133.69 -131.08 11.13 -81.77c0,0 -0.19,-0.53 -0.5,-1.57z"/>
  <path class="fil0 str0" d="M2017 420.35c-69.68,229.59 -364.45,304.49 -400.39,379.38 -39.2,81.72 -14.49,169.1 -10.55,181.77 35.57,-25.6 63.54,-38.18 63.54,-38.18 348.05,-163.24 453.21,-415.82 479.7,-501.02 5.78,-18.57 7.81,-29.19 7.81,-29.19l-127.18 -132.55c0.21,2.21 0.39,4.41 0.56,6.6 3.83,49.51 -1.5,93.65 -13.5,133.2z"/>
  <path class="fil0 str0" d="M1086.71 368.91c127.18,0 847.85,0 847.85,0 0,0 52.04,15.4 82.43,51.43 12,-39.55 17.33,-83.68 13.5,-133.2 -21.2,-66.27 -95.93,-61.83 -95.93,-61.83 0,0 -720.67,0 -847.85,0 -130.89,-7.43 -158.97,55.23 -158.97,55.23 -4.19,45.09 -0.84,85.77 8.23,122.63 28.26,-15.69 77.24,-34.27 150.74,-34.27z"/>
  <path class="fil0 str0" d="M935.97 403.19c-9.06,-36.86 -12.42,-77.54 -8.23,-122.63l-127.18 132.55c0,0 1.28,6.63 4.66,18.59 20.56,72.54 118.93,340.93 482.86,511.62 0,0 127.18,66.29 148.38,243.02l0 34.37 25.28 -24.78c15.87,-103.85 89.22,-174.76 144.32,-214.42 -3.93,-12.68 -28.64,-100.05 10.55,-181.77 35.93,-74.9 330.71,-149.79 400.39,-379.38 -30.39,-36.03 -82.43,-51.43 -82.43,-51.43 0,0 -720.67,0 -847.85,0 -73.5,0 -122.48,18.58 -150.74,34.27zm489.88 617.46c0,-12.19 9.49,-22.09 21.2,-22.09 11.71,0 21.2,9.9 21.2,22.09 0,12.2 -9.49,22.1 -21.2,22.1 -11.71,0 -21.2,-9.9 -21.2,-22.1z"/>
  <path class="fil0 str0" d="M2586.28 2070.06c184.65,0 334.34,-149.69 334.34,-334.34l0 -847.87c-164.19,-91.86 -648.34,-363.86 -771.32,-445.55 -26.49,85.2 -131.65,337.78 -479.7,501.02 0,0 -27.97,12.57 -63.54,38.18 0.32,1.03 0.5,1.57 0.5,1.57l-11.13 81.77 -133.69 131.08 -25.28 24.78 0 -34.37c-21.2,-176.73 -148.38,-243.02 -148.38,-243.02 -363.93,-170.69 -462.3,-439.08 -482.86,-511.62 -117.52,79.52 -632.08,367.83 -778.75,449.72l0 854.3c0,184.65 149.69,334.34 334.34,334.34l2225.47 0zm-1075.65 -784.29c-11.69,0 -21.18,-9.9 -21.18,-22.09 0,-12.2 9.49,-22.09 21.18,-22.09 11.71,0 21.2,9.9 21.2,22.09 0,12.2 -9.49,22.09 -21.2,22.09z"/>
  <path class="fil1 str1" d="M26.47 881.42c0,0 693.97,-383.45 778.75,-449.72"/>
  <path class="fil1 str1" d="M2920.62 887.86c0,0 -686.54,-379.28 -771.32,-445.55"/>
  <path class="fil1 str1" d="M1351.12 983.07c0,0 32.35,-94.97 -10.05,-183.34 -42.4,-88.37 -445.11,-176.73 -413.33,-519.17l-127.18 132.55c0,0 63.6,331.39 487.52,530.21 0,0 127.18,66.29 148.38,243.02l0 243.02 127.16 0"/>
  <path class="fil1 str1" d="M1422.64 1234.26l172.78 -169.42 11.13 -81.77c0,0 -32.33,-94.97 10.05,-183.34 42.4,-88.37 445.11,-176.73 413.33,-519.17l127.18 132.55c0,0 -63.58,331.39 -487.52,530.21 0,0 -187.84,84.46 -209.03,261.21"/>
  <path class="fil1 str1" d="M1383.47 954.38c0,0 105.98,-22.1 148.36,66.27"/>
  <path class="fil1 str1" d="M1468.25 1020.65c0,12.2 -9.49,22.1 -21.2,22.1 -11.71,0 -21.2,-9.9 -21.2,-22.1 0,-12.19 9.49,-22.09 21.2,-22.09 11.71,0 21.2,9.9 21.2,22.09z"/>
  <path class="fil1 str1" d="M1531.83 1263.67c0,12.2 -9.49,22.09 -21.2,22.09 -11.69,0 -21.18,-9.9 -21.18,-22.09 0,-12.2 9.49,-22.09 21.18,-22.09 11.71,0 21.2,9.9 21.2,22.09z"/>
  <path class="fil1 str1" d="M927.75 280.55c0,0 28.08,-62.66 158.97,-55.23 127.18,0 847.85,0 847.85,0 0,0 74.73,-4.44 95.93,61.83"/>
  <path class="fil1 str1" d="M935.97 403.19c0,0 23.56,-34.27 150.74,-34.27 127.18,0 847.85,0 847.85,0 0,0 61.23,-3.8 82.43,51.43"/>
  <path class="fil1 str2" d="M2586.28 2070.06l-2225.47 0c-184.65,0 -334.34,-149.69 -334.34,-334.34l0 -1374.89c0,-184.65 149.69,-334.36 334.34,-334.36l2225.47 0c184.65,0 334.34,149.7 334.34,334.36l0 1374.89c0,184.65 -149.69,334.34 -334.34,334.34z"/>
 </g>
</svg>
