<?xml version="1.0" encoding="UTF-8"?>
<!DOCTYPE svg PUBLIC "-//W3C//DTD SVG 1.1//EN" "http://www.w3.org/Graphics/SVG/1.1/DTD/svg11.dtd">
<!-- Creator: CorelDRAW -->
<svg xmlns="http://www.w3.org/2000/svg" xml:space="preserve" width="55.6608mm" height="39.5978mm" version="1.1" style="shape-rendering:geometricPrecision; text-rendering:geometricPrecision; image-rendering:optimizeQuality; fill-rule:evenodd; clip-rule:evenodd"
viewBox="0 0 1378.24 980.5"
 xmlns:xlink="http://www.w3.org/1999/xlink"
 xmlns:xodm="http://www.corel.com/coreldraw/odm/2003">
 <defs>
  <style type="text/css">
   <![CDATA[
    .str1 {stroke:#7B7E7F;stroke-width:24.76;stroke-miterlimit:10}
    .str0 {stroke:#222124;stroke-width:8.74;stroke-linecap:round;stroke-linejoin:round;stroke-miterlimit:10}
    .fil2 {fill:none;fill-rule:nonzero}
    .fil0 {fill:#FEFEFE;fill-rule:nonzero}
    .fil5 {fill:#2D2E2F;fill-rule:nonzero}
    .fil1 {fill:#222124;fill-rule:nonzero}
    .fil3 {fill:#373B54;fill-rule:nonzero}
    .fil4 {fill:#2A2A3F;fill-rule:nonzero}
   ]]>
  </style>
 </defs>
 <g id="Capa_x0020_1">
  <metadata id="CorelCorpID_0Corel-Layer"/>
  <path class="fil0" d="M1363.67 412.79l2.18 0.19 0 398.77c0,74.54 -52.13,136.89 -121.96,152.56l16.52 -122.64 47.61 -233.52 55.64 -195.36z"/>
  <path class="fil1" d="M1363.67 412.79l-0.18 2.04 2.36 0.21 0 -4.11 -3.67 -0.33 -0.44 1.62 1.92 0.57zm-117.62 551.02l16.47 -121.8 47.43 -233.38 55.73 -195.29 -2.01 -0.56 -0.18 2.04 0.18 -2.04 -1.92 -0.57 -55.73 195.44 -47.61 233.66 -16.61 123.45c1.43,-0.3 2.84,-0.62 4.25,-0.96z"/>
  <path class="fil2 str0" d="M1363.67 412.79l-0.18 2.04 2.36 0.21m-119.81 548.78l16.47 -121.8 47.43 -233.38 55.73 -195.29 -2.01 -0.56 -0.18 2.04 0.18 -2.04 -1.92 -0.57 -55.73 195.44 -47.61 233.66 -16.61 123.45m124.06 -553.85l-3.67 -0.33 -0.44 1.62 1.92 0.57"/>
  <path class="fil0" d="M114.27 958.36l-15.9 -117.83 -47.52 -233.52 -38.47 -134.94 0 339.69c0,67.2 42.39,124.49 101.89,146.6z"/>
  <path class="fil1" d="M116.44 959.14l-16.05 -118.96 -47.55 -233.66 -40.46 -141.92 0 14.92 36.49 127.97 47.48 233.38 15.75 116.66c1.44,0.56 2.88,1.09 4.34,1.61z"/>
  <path class="fil2 str0" d="M116.44 959.14l-16.05 -118.96 -47.55 -233.66 -40.46 -141.92m0 14.92l36.49 127.97 47.48 233.38 15.75 116.66"/>
  <path class="fil0" d="M1365.86 391.45c-27.67,-20.3 -68.83,-45.47 -106.05,-61.41 -47.61,-20.42 -225.98,-101.36 -279.53,-128.12l-116.61 -67.01 -67.44 -4.12 -276.44 4.12 -121.12 54.67 -3.93 -0.05c0,0 -95.04,49.06 -217.67,106.8 -68.81,32.52 -126.32,59.5 -164.69,81.62l0 173.1c29.53,93.59 65.89,230.26 90.83,402.7 19.93,9.22 42.13,14.36 65.53,14.36l1040.75 0c13.92,0 27.41,-1.83 40.25,-5.24 7.05,-44.91 15.8,-93.59 24.92,-141.09 15.76,-82.13 60.24,-228.15 91.2,-324.56l0 -105.78z"/>
  <path class="fil1" d="M1365.86 388.89c-27.81,-20.23 -68.37,-44.94 -105.17,-60.72 -23.85,-10.19 -80.36,-35.54 -137.58,-61.67 -57.22,-26.13 -115.22,-53.05 -141.95,-66.4l-0.87 1.82 1.05 -1.77 -117.05 -67.24 -67.96 -4.16 -276.99 4.14 -121.09 54.65 -3.98 -0.05 -0.45 0.24c0,0 -0.37,0.19 -1.09,0.56 -10.89,5.6 -101.58,52.09 -216.52,106.2 -56.21,26.57 -104.89,49.44 -141.82,69.03 -7.88,4.18 -15.22,8.21 -22,12.09l0 4.72c38.22,-22.15 96.14,-49.33 165.56,-82.15l-0.01 0c122.68,-57.76 217.73,-106.81 217.75,-106.82l-0.94 -1.82 -0.02 2.04 4.38 0.05 121.15 -54.67 275.99 -4.12 66.83 4.09 116.26 66.8 0.09 0.03c26.73,13.41 84.73,40.33 141.95,66.47 57.3,26.14 113.82,51.48 137.67,61.71 26.64,11.43 55.56,27.69 79.84,43.46 9.93,6.4 19.05,12.72 26.99,18.6l0 -5.1zm-1353.48 168.97c29.06,93.05 64.25,226.93 88.61,394.85 1.46,0.7 2.94,1.38 4.42,2.04 -17.58,-121.97 -40.88,-226.12 -63.48,-309.85 -10.19,-37.78 -20.24,-71.41 -29.56,-100.64l0 13.6zm1239.53 404.42c7.01,-44.63 15.7,-92.95 24.76,-140.12 10.83,-56.73 35.55,-144.27 60.01,-224.71 10.09,-33.31 20.15,-65.4 29.18,-93.62l0 -13.27c-9.98,30.96 -21.51,67.53 -33.11,105.7 -24.46,80.52 -49.18,168.09 -60.1,225.14 -9.18,47.81 -17.98,96.84 -25.03,142.02 1.44,-0.36 2.87,-0.74 4.29,-1.14z"/>
  <path class="fil2 str0" d="M1365.86 388.89c-27.81,-20.23 -68.37,-44.94 -105.17,-60.72 -23.85,-10.19 -80.36,-35.54 -137.58,-61.67 -57.22,-26.13 -115.22,-53.05 -141.95,-66.4l-0.87 1.82 1.05 -1.77 -117.05 -67.24 -67.96 -4.16 -276.99 4.14 -121.09 54.65 -3.98 -0.05 -0.45 0.24c0,0 -0.37,0.19 -1.09,0.56 -10.89,5.6 -101.58,52.09 -216.52,106.2 -56.21,26.57 -104.89,49.44 -141.82,69.03 -7.88,4.18 -15.22,8.21 -22,12.09m0 182.27c29.06,93.05 64.25,226.93 88.61,394.85m1150.92 9.58c7.01,-44.63 15.7,-92.95 24.76,-140.12 10.83,-56.73 35.55,-144.27 60.01,-224.71 10.09,-33.31 20.15,-65.4 29.18,-93.62m0 -13.27c-9.98,30.96 -21.51,67.53 -33.11,105.7 -24.46,80.52 -49.18,168.09 -60.1,225.14 -9.18,47.81 -17.98,96.84 -25.03,142.02m-1142.2 -8.68c-17.58,-121.97 -40.88,-226.12 -63.48,-309.85 -10.19,-37.78 -20.24,-71.41 -29.56,-100.64m0 -163.95c38.22,-22.15 96.14,-49.33 165.56,-82.15l-0.01 0c122.68,-57.76 217.73,-106.81 217.75,-106.82l-0.94 -1.82 -0.02 2.04 4.38 0.05 121.15 -54.67 275.99 -4.12 66.83 4.09 116.26 66.8 0.09 0.03c26.73,13.41 84.73,40.33 141.95,66.47 57.3,26.14 113.82,51.48 137.67,61.71 26.64,11.43 55.56,27.69 79.84,43.46 9.93,6.4 19.05,12.72 26.99,18.6"/>
  <polygon class="fil0" points="720.81,810.31 633.34,810.31 633.34,402.09 720.81,402.09 "/>
  <polygon class="fil1" points="720.81,810.31 720.81,807.33 636.29,807.33 636.29,405.07 717.87,405.07 717.87,810.31 720.81,810.31 720.81,807.33 720.81,810.31 723.75,810.31 723.75,399.1 630.4,399.1 630.4,813.3 723.75,813.3 723.75,810.31 "/>
  <polyline class="fil2 str0" points="720.81,810.31 720.81,807.33 636.29,807.33 636.29,405.07 717.87,405.07 717.87,810.31 720.81,810.31 720.81,807.33 720.81,810.31 723.75,810.31 723.75,399.1 630.4,399.1 630.4,813.3 723.75,813.3 723.75,810.31 720.81,810.31 "/>
  <path class="fil1" d="M634.75 772.12l9.8 0 0 -3.98 -9.8 0 0 3.98zm17.64 0l9.8 0 0 -3.98 -9.8 0 0 3.98zm17.64 0l9.79 0 0 -3.98 -9.79 0 0 3.98zm17.64 0l9.8 0 0 -3.98 -9.8 0 0 3.98zm17.64 0l9.8 0 0 -3.98 -9.8 0 0 3.98z"/>
  <path class="fil2 str0" d="M634.75 772.12l9.8 0 0 -3.98 -9.8 0 0 3.98m17.64 0l9.8 0 0 -3.98 -9.8 0 0 3.98m17.64 0l9.79 0 0 -3.98 -9.79 0 0 3.98m17.64 0l9.8 0 0 -3.98 -9.8 0 0 3.98m17.64 0l9.8 0 0 -3.98 -9.8 0 0 3.98"/>
  <path class="fil0" d="M705.33 628.92c0,15.78 -12.12,28.57 -27.08,28.57 -14.96,0 -27.08,-12.79 -27.08,-28.57 0,-15.79 12.12,-28.57 27.08,-28.57 14.96,0 27.08,12.79 27.08,28.57z"/>
  <path class="fil1" d="M705.33 628.92l-2.02 0c0,7.29 -2.8,13.88 -7.33,18.68 -4.54,4.78 -10.8,7.74 -17.73,7.74 -6.94,0 -13.19,-2.96 -17.73,-7.74 -4.53,-4.8 -7.33,-11.38 -7.33,-18.68 0,-7.29 2.8,-13.88 7.33,-18.68 4.54,-4.79 10.8,-7.74 17.73,-7.74 6.94,0 13.19,2.95 17.73,7.74 4.53,4.8 7.33,11.38 7.33,18.68l2.02 0 2.03 0c0,-8.49 -3.27,-16.19 -8.54,-21.74 -5.27,-5.56 -12.55,-8.99 -20.57,-8.99 -8.02,0 -15.3,3.43 -20.57,8.99 -5.26,5.56 -8.54,13.25 -8.53,21.74 -0.01,8.48 3.27,16.19 8.53,21.73 5.27,5.56 12.55,9 20.57,9 8.02,0 15.3,-3.44 20.57,-9 5.27,-5.55 8.54,-13.25 8.54,-21.73l-2.03 0z"/>
  <path class="fil2 str0" d="M705.33 628.92l-2.02 0c0,7.29 -2.8,13.88 -7.33,18.68 -4.54,4.78 -10.8,7.74 -17.73,7.74 -6.94,0 -13.19,-2.96 -17.73,-7.74 -4.53,-4.8 -7.33,-11.38 -7.33,-18.68 0,-7.29 2.8,-13.88 7.33,-18.68 4.54,-4.79 10.8,-7.74 17.73,-7.74 6.94,0 13.19,2.95 17.73,7.74 4.53,4.8 7.33,11.38 7.33,18.68l2.02 0 2.03 0c0,-8.49 -3.27,-16.19 -8.54,-21.74 -5.27,-5.56 -12.55,-8.99 -20.57,-8.99 -8.02,0 -15.3,3.43 -20.57,8.99 -5.26,5.56 -8.54,13.25 -8.53,21.74 -0.01,8.48 3.27,16.19 8.53,21.73 5.27,5.56 12.55,9 20.57,9 8.02,0 15.3,-3.44 20.57,-9 5.27,-5.55 8.54,-13.25 8.54,-21.73l-2.03 0"/>
  <path class="fil0" d="M684.17 620.99c0,3.45 -2.65,6.24 -5.92,6.24 -3.28,0 -5.92,-2.79 -5.92,-6.24 0,-3.45 2.65,-6.25 5.92,-6.25 3.28,0 5.92,2.81 5.92,6.25z"/>
  <path class="fil1" d="M684.17 620.99l-1.56 0c0,1.27 -0.48,2.39 -1.28,3.23 -0.79,0.84 -1.88,1.35 -3.09,1.35 -1.21,0 -2.3,-0.52 -3.09,-1.35 -0.79,-0.84 -1.28,-1.96 -1.28,-3.23 0,-1.27 0.48,-2.4 1.28,-3.24 0.79,-0.84 1.88,-1.35 3.09,-1.35 1.21,0 2.3,0.52 3.09,1.35 0.79,0.84 1.28,1.98 1.28,3.24l1.56 0 1.56 0c0.01,-2.18 -0.84,-4.18 -2.19,-5.61 -1.35,-1.42 -3.23,-2.31 -5.28,-2.31 -2.05,0 -3.93,0.88 -5.28,2.31 -1.35,1.42 -2.2,3.42 -2.19,5.61 -0.01,2.18 0.84,4.17 2.19,5.6 1.35,1.42 3.23,2.32 5.28,2.32 2.05,0 3.93,-0.89 5.28,-2.32 1.35,-1.42 2.2,-3.41 2.19,-5.6l-1.56 0z"/>
  <path class="fil2 str0" d="M684.17 620.99l-1.56 0c0,1.27 -0.48,2.39 -1.28,3.23 -0.79,0.84 -1.88,1.35 -3.09,1.35 -1.21,0 -2.3,-0.52 -3.09,-1.35 -0.79,-0.84 -1.28,-1.96 -1.28,-3.23 0,-1.27 0.48,-2.4 1.28,-3.24 0.79,-0.84 1.88,-1.35 3.09,-1.35 1.21,0 2.3,0.52 3.09,1.35 0.79,0.84 1.28,1.98 1.28,3.24l1.56 0 1.56 0c0.01,-2.18 -0.84,-4.18 -2.19,-5.61 -1.35,-1.42 -3.23,-2.31 -5.28,-2.31 -2.05,0 -3.93,0.88 -5.28,2.31 -1.35,1.42 -2.2,3.42 -2.19,5.61 -0.01,2.18 0.84,4.17 2.19,5.6 1.35,1.42 3.23,2.32 5.28,2.32 2.05,0 3.93,-0.89 5.28,-2.32 1.35,-1.42 2.2,-3.41 2.19,-5.6l-1.56 0"/>
  <path class="fil0" d="M684.28 639.74c0,3.46 -2.65,6.25 -5.92,6.25 -3.27,0 -5.92,-2.8 -5.92,-6.25 0,-3.45 2.65,-6.25 5.92,-6.25 3.28,0 5.92,2.8 5.92,6.25z"/>
  <path class="fil1" d="M684.28 639.74l-1.56 0c0,1.27 -0.48,2.4 -1.28,3.24 -0.78,0.84 -1.88,1.35 -3.09,1.35 -1.21,0 -2.3,-0.52 -3.09,-1.35 -0.8,-0.84 -1.28,-1.97 -1.28,-3.24 0,-1.27 0.48,-2.39 1.28,-3.23 0.79,-0.84 1.88,-1.35 3.09,-1.35 1.22,0 2.31,0.52 3.09,1.35 0.79,0.84 1.28,1.97 1.28,3.23l1.56 0 1.56 0c0,-2.18 -0.85,-4.18 -2.2,-5.6 -1.35,-1.42 -3.23,-2.31 -5.29,-2.31 -2.05,0 -3.93,0.88 -5.28,2.31 -1.35,1.42 -2.19,3.42 -2.19,5.6 0,2.19 0.84,4.18 2.19,5.61 1.35,1.43 3.23,2.31 5.28,2.31 2.06,0 3.93,-0.88 5.29,-2.31 1.35,-1.42 2.2,-3.41 2.2,-5.61l-1.56 0z"/>
  <path class="fil2 str0" d="M684.28 639.74l-1.56 0c0,1.27 -0.48,2.4 -1.28,3.24 -0.78,0.84 -1.88,1.35 -3.09,1.35 -1.21,0 -2.3,-0.52 -3.09,-1.35 -0.8,-0.84 -1.28,-1.97 -1.28,-3.24 0,-1.27 0.48,-2.39 1.28,-3.23 0.79,-0.84 1.88,-1.35 3.09,-1.35 1.22,0 2.31,0.52 3.09,1.35 0.79,0.84 1.28,1.97 1.28,3.23l1.56 0 1.56 0c0,-2.18 -0.85,-4.18 -2.2,-5.6 -1.35,-1.42 -3.23,-2.31 -5.29,-2.31 -2.05,0 -3.93,0.88 -5.28,2.31 -1.35,1.42 -2.19,3.42 -2.19,5.6 0,2.19 0.84,4.18 2.19,5.61 1.35,1.43 3.23,2.31 5.28,2.31 2.06,0 3.93,-0.88 5.29,-2.31 1.35,-1.42 2.2,-3.41 2.2,-5.61l-1.56 0"/>
  <polygon class="fil3" points="678.25,620.99 678.11,639.19 "/>
  <path class="fil4" d="M674.89 620.96l-0.14 18.19c-0.02,1.98 1.48,3.61 3.34,3.63 1.86,0.02 3.37,-1.58 3.39,-3.56l0.14 -18.19c0.02,-1.98 -1.48,-3.61 -3.34,-3.63 -1.86,-0.01 -3.38,1.58 -3.39,3.56z"/>
  <path class="fil0" d="M701.3 443.48c0,14.72 -11.31,26.65 -25.26,26.65 -13.95,0 -25.25,-11.93 -25.25,-26.65 0,-14.72 11.3,-26.65 25.25,-26.65 13.95,0 25.26,11.93 25.26,26.65z"/>
  <path class="fil1" d="M701.3 443.48l-1.89 0c0,6.8 -2.61,12.95 -6.84,17.42 -4.24,4.46 -10.07,7.22 -16.54,7.22 -6.46,0 -12.3,-2.76 -16.54,-7.22 -4.23,-4.47 -6.84,-10.61 -6.84,-17.42 0,-6.81 2.61,-12.95 6.84,-17.42 4.24,-4.46 10.07,-7.22 16.54,-7.22 6.47,0 12.3,2.76 16.54,7.22 4.23,4.47 6.84,10.61 6.84,17.42l1.89 0 1.88 0c0,-7.92 -3.05,-15.09 -7.96,-20.27 -4.91,-5.18 -11.69,-8.39 -19.18,-8.39 -7.49,0 -14.27,3.21 -19.18,8.39 -4.91,5.18 -7.96,12.36 -7.96,20.27 0,7.91 3.05,15.09 7.96,20.27 4.91,5.18 11.7,8.38 19.18,8.38 7.49,0 14.27,-3.21 19.18,-8.38 4.91,-5.18 7.96,-12.36 7.96,-20.27l-1.88 0z"/>
  <path class="fil2 str0" d="M701.3 443.48l-1.89 0c0,6.8 -2.61,12.95 -6.84,17.42 -4.24,4.46 -10.07,7.22 -16.54,7.22 -6.46,0 -12.3,-2.76 -16.54,-7.22 -4.23,-4.47 -6.84,-10.61 -6.84,-17.42 0,-6.81 2.61,-12.95 6.84,-17.42 4.24,-4.46 10.07,-7.22 16.54,-7.22 6.47,0 12.3,2.76 16.54,7.22 4.23,4.47 6.84,10.61 6.84,17.42l1.89 0 1.88 0c0,-7.92 -3.05,-15.09 -7.96,-20.27 -4.91,-5.18 -11.69,-8.39 -19.18,-8.39 -7.49,0 -14.27,3.21 -19.18,8.39 -4.91,5.18 -7.96,12.36 -7.96,20.27 0,7.91 3.05,15.09 7.96,20.27 4.91,5.18 11.7,8.38 19.18,8.38 7.49,0 14.27,-3.21 19.18,-8.38 4.91,-5.18 7.96,-12.36 7.96,-20.27l-1.88 0"/>
  <path class="fil0" d="M681.57 436.08c0,3.21 -2.48,5.83 -5.53,5.83 -3.05,0 -5.52,-2.61 -5.52,-5.83 0,-3.22 2.47,-5.83 5.52,-5.83 3.05,0 5.53,2.6 5.53,5.83z"/>
  <path class="fil1" d="M681.57 436.08l-1.46 0c0,1.18 -0.44,2.24 -1.19,3.02 -0.74,0.78 -1.75,1.26 -2.88,1.26 -1.13,0 -2.15,-0.48 -2.88,-1.26 -0.74,-0.79 -1.19,-1.84 -1.19,-3.02 0,-1.18 0.44,-2.24 1.19,-3.02 0.74,-0.78 1.75,-1.26 2.88,-1.26 1.14,0 2.15,0.48 2.88,1.26 0.74,0.79 1.19,1.84 1.19,3.02l1.46 0 1.45 0c0,-2.04 -0.78,-3.89 -2.05,-5.22 -1.26,-1.33 -3,-2.16 -4.93,-2.16 -1.92,0 -3.67,0.82 -4.93,2.16 -1.27,1.33 -2.05,3.19 -2.05,5.22 0,2.04 0.78,3.89 2.05,5.22 1.26,1.33 3,2.16 4.93,2.16 1.92,0 3.67,-0.83 4.93,-2.16 1.27,-1.33 2.05,-3.19 2.05,-5.22l-1.45 0z"/>
  <path class="fil2 str0" d="M681.57 436.08l-1.46 0c0,1.18 -0.44,2.24 -1.19,3.02 -0.74,0.78 -1.75,1.26 -2.88,1.26 -1.13,0 -2.15,-0.48 -2.88,-1.26 -0.74,-0.79 -1.19,-1.84 -1.19,-3.02 0,-1.18 0.44,-2.24 1.19,-3.02 0.74,-0.78 1.75,-1.26 2.88,-1.26 1.14,0 2.15,0.48 2.88,1.26 0.74,0.79 1.19,1.84 1.19,3.02l1.46 0 1.45 0c0,-2.04 -0.78,-3.89 -2.05,-5.22 -1.26,-1.33 -3,-2.16 -4.93,-2.16 -1.92,0 -3.67,0.82 -4.93,2.16 -1.27,1.33 -2.05,3.19 -2.05,5.22 0,2.04 0.78,3.89 2.05,5.22 1.26,1.33 3,2.16 4.93,2.16 1.92,0 3.67,-0.83 4.93,-2.16 1.27,-1.33 2.05,-3.19 2.05,-5.22l-1.45 0"/>
  <path class="fil0" d="M681.67 453.57c0,3.22 -2.47,5.83 -5.53,5.83 -3.05,0 -5.52,-2.6 -5.52,-5.83 0,-3.22 2.47,-5.83 5.52,-5.83 3.06,0 5.53,2.6 5.53,5.83z"/>
  <path class="fil1" d="M681.67 453.57l-1.45 0c-0.01,1.18 -0.46,2.24 -1.19,3.02 -0.74,0.78 -1.76,1.26 -2.89,1.26 -1.13,0 -2.14,-0.48 -2.88,-1.26 -0.74,-0.78 -1.19,-1.84 -1.19,-3.02 0,-1.18 0.45,-2.24 1.19,-3.02 0.74,-0.78 1.76,-1.26 2.88,-1.26 1.14,0 2.15,0.48 2.89,1.26 0.73,0.79 1.18,1.84 1.19,3.02l1.45 0 1.45 0c0,-2.04 -0.79,-3.9 -2.05,-5.22 -1.26,-1.34 -3.01,-2.16 -4.93,-2.16 -1.91,0 -3.67,0.82 -4.93,2.16 -1.26,1.33 -2.05,3.19 -2.05,5.22 -0.01,2.04 0.79,3.89 2.05,5.22 1.26,1.34 3.01,2.16 4.93,2.16 1.92,0 3.67,-0.82 4.93,-2.16 1.27,-1.33 2.05,-3.19 2.05,-5.22l-1.45 0z"/>
  <path class="fil2 str0" d="M681.67 453.57l-1.45 0c-0.01,1.18 -0.46,2.24 -1.19,3.02 -0.74,0.78 -1.76,1.26 -2.89,1.26 -1.13,0 -2.14,-0.48 -2.88,-1.26 -0.74,-0.78 -1.19,-1.84 -1.19,-3.02 0,-1.18 0.45,-2.24 1.19,-3.02 0.74,-0.78 1.76,-1.26 2.88,-1.26 1.14,0 2.15,0.48 2.89,1.26 0.73,0.79 1.18,1.84 1.19,3.02l1.45 0 1.45 0c0,-2.04 -0.79,-3.9 -2.05,-5.22 -1.26,-1.34 -3.01,-2.16 -4.93,-2.16 -1.91,0 -3.67,0.82 -4.93,2.16 -1.26,1.33 -2.05,3.19 -2.05,5.22 -0.01,2.04 0.79,3.89 2.05,5.22 1.26,1.34 3.01,2.16 4.93,2.16 1.92,0 3.67,-0.82 4.93,-2.16 1.27,-1.33 2.05,-3.19 2.05,-5.22l-1.45 0"/>
  <polygon class="fil3" points="676.04,436.08 675.91,453.05 "/>
  <path class="fil4" d="M672.9 436.06l-0.13 16.96c-0.02,1.85 1.38,3.37 3.11,3.38 1.73,0.02 3.15,-1.48 3.16,-3.32l0.13 -16.97c0.02,-1.85 -1.38,-3.37 -3.11,-3.38 -1.73,-0.01 -3.15,1.48 -3.16,3.33z"/>
  <polygon class="fil1" points="632.78,482.58 720.49,482.58 720.49,479.6 632.78,479.6 "/>
  <polyline class="fil2 str0" points="632.78,482.58 720.49,482.58 720.49,479.6 632.78,479.6 "/>
  <path class="fil0" d="M509.08 202.63l-21.09 12.84c0,0 120.51,187.2 193.22,188.51 83.75,-14.28 190.05,-183 190.05,-183l-12.84 -22.92c0,0 -301.66,20.17 -349.34,4.58z"/>
  <path class="fil1" d="M509.08 202.63l-1.06 -1.74 -22.89 13.92 1.14 1.77c0.03,0.03 30.19,46.88 69.5,93.96 19.66,23.54 41.6,47.14 63.28,65 10.84,8.93 21.62,16.44 32.06,21.78 10.43,5.34 20.55,8.53 30.07,8.7l0.19 0 0.19 -0.03c21.52,-3.69 44.07,-17.12 65.92,-35.05 32.85,-26.92 64.2,-64.11 87.35,-94.59 23.15,-30.48 38.17,-54.24 38.17,-54.28l0.7 -1.03 -14.06 -25.11 -1.31 0.09c0,0 -0.61,0.04 -1.83,0.12 -17.56,1.14 -161.71,10.37 -260.39,10.37 -20.33,0 -38.73,-0.39 -53.67,-1.32 -7.47,-0.47 -14.07,-1.06 -19.6,-1.82 -5.53,-0.74 -9.99,-1.65 -13.12,-2.67l-0.89 -0.29 -0.8 0.49 1.06 1.74 -0.63 1.95c3.52,1.14 8.17,2.07 13.84,2.84 17,2.3 43.23,3.17 73.82,3.17 105.5,0 262.49,-10.5 262.49,-10.5l-0.18 -2.04 -1.75 1 12.84 22.92 1.75 -1 -1.66 -1.09c0,0 -0.18,0.16 -0.35,0.48 -3.14,4.9 -30.22,47.01 -66.65,89.55 -18.26,21.27 -38.78,42.65 -59.66,59.51 -20.98,16.87 -42.37,29.19 -62.07,32.54l0.34 2.02 0.04 -2.04c-8.66,-0.15 -18.21,-3.1 -28.28,-8.26 -17.63,-9.01 -36.75,-24.73 -55.41,-43.25 -27.99,-27.77 -54.98,-61.81 -74.94,-88.89 -9.98,-13.54 -18.21,-25.34 -23.95,-33.75 -2.86,-4.2 -5.1,-7.56 -6.63,-9.87 -0.76,-1.15 -1.34,-2.05 -1.74,-2.65 -0.38,-0.59 -0.58,-0.91 -0.58,-0.91l-1.72 1.11 1.06 1.75 21.09 -12.84 -1.06 -1.75 -0.63 1.95 0.63 -1.95z"/>
  <path class="fil2 str0" d="M509.08 202.63l-1.06 -1.74 -22.89 13.92 1.14 1.77c0.03,0.03 30.19,46.88 69.5,93.96 19.66,23.54 41.6,47.14 63.28,65 10.84,8.93 21.62,16.44 32.06,21.78 10.43,5.34 20.55,8.53 30.07,8.7l0.19 0 0.19 -0.03c21.52,-3.69 44.07,-17.12 65.92,-35.05 32.85,-26.92 64.2,-64.11 87.35,-94.59 23.15,-30.48 38.17,-54.24 38.17,-54.28l0.7 -1.03 -14.06 -25.11 -1.31 0.09c0,0 -0.61,0.04 -1.83,0.12 -17.56,1.14 -161.71,10.37 -260.39,10.37 -20.33,0 -38.73,-0.39 -53.67,-1.32 -7.47,-0.47 -14.07,-1.06 -19.6,-1.82 -5.53,-0.74 -9.99,-1.65 -13.12,-2.67l-0.89 -0.29 -0.8 0.49 1.06 1.74 -0.63 1.95c3.52,1.14 8.17,2.07 13.84,2.84 17,2.3 43.23,3.17 73.82,3.17 105.5,0 262.49,-10.5 262.49,-10.5l-0.18 -2.04 -1.75 1 12.84 22.92 1.75 -1 -1.66 -1.09c0,0 -0.18,0.16 -0.35,0.48 -3.14,4.9 -30.22,47.01 -66.65,89.55 -18.26,21.27 -38.78,42.65 -59.66,59.51 -20.98,16.87 -42.37,29.19 -62.07,32.54l0.34 2.02 0.04 -2.04c-8.66,-0.15 -18.21,-3.1 -28.28,-8.26 -17.63,-9.01 -36.75,-24.73 -55.41,-43.25 -27.99,-27.77 -54.98,-61.81 -74.94,-88.89 -9.98,-13.54 -18.21,-25.34 -23.95,-33.75 -2.86,-4.2 -5.1,-7.56 -6.63,-9.87 -0.76,-1.15 -1.34,-2.05 -1.74,-2.65 -0.38,-0.59 -0.58,-0.91 -0.58,-0.91l-1.72 1.11 1.06 1.75 21.09 -12.84 -1.06 -1.75 -0.63 1.95 0.63 -1.95"/>
  <path class="fil0" d="M495.33 212.27c0,0 220.08,18.34 376.45,-8.25 0,-15.59 -4.19,-29.81 -4.19,-29.81l-378.22 7.34 5.96 30.72z"/>
  <path class="fil5" d="M495.33 212.27l-0.17 2.04c0.04,0 74.04,6.17 166.76,6.17 67.23,0 144.27,-3.24 210.22,-14.44l1.66 -0.29 0 -1.72c0,-15.94 -4.19,-30.27 -4.19,-30.37l-0.44 -1.5 -382.26 7.41 6.72 34.63 1.54 0.13 0.17 -2.04 2.01 -0.39 -5.5 -28.33 375.84 -7.29 -0.09 -2.04 -1.92 0.57 0 0.03c0.18,0.74 4.02,14.44 4.02,29.2l2.09 0 -0.35 -2.02c-65.51,11.15 -142.47,14.39 -209.52,14.39 -46.26,0 -87.88,-1.54 -117.92,-3.08 -15.03,-0.77 -27.15,-1.54 -35.52,-2.12 -4.19,-0.29 -7.43,-0.52 -9.63,-0.69 -1.1,-0.09 -1.93,-0.16 -2.5,-0.2 -0.56,-0.04 -0.85,-0.07 -0.85,-0.07l-0.17 2.04 2.01 -0.39 -2.01 0.39z"/>
  <path class="fil0" d="M466.08 115.32c0.01,-0.04 10.41,-41.48 23.88,-35 13.49,6.46 69.48,19.99 145.94,22.5 76.46,2.52 165.66,-4.47 196.06,-10.45 30.4,-5.97 43.76,-23.48 50.23,-0.25 6.46,23.22 13.98,94.39 13.98,94.39 0,0 -173.39,16.15 -299.41,11.7 -126.02,-4.44 -137.39,-10.92 -137.39,-10.92l6.72 -71.98z"/>
  <path class="fil1" d="M466.08 115.32l2.04 0 -2.04 0 1.98 0.5 0.02 -0.1c0.26,-1.01 2.58,-9.84 6.22,-18.29 1.82,-4.22 3.98,-8.34 6.27,-11.29 1.15,-1.47 2.33,-2.63 3.43,-3.38 1.12,-0.75 2.12,-1.09 3.08,-1.09 0.63,0 1.27,0.14 1.99,0.49 1.81,0.86 4.22,1.8 7.24,2.81 10.57,3.54 28.64,7.94 52.5,11.76 23.86,3.82 53.47,7.03 87.01,8.13 11.02,0.37 22.28,0.53 33.6,0.53 33.73,0 67.92,-1.47 96.92,-3.58 14.5,-1.06 27.69,-2.27 38.87,-3.54 11.27,-1.28 20.53,-2.6 27.08,-3.9 9.7,-1.9 17.64,-4.95 24.2,-7.48 3.23,-1.27 6.11,-2.39 8.56,-3.19 2.53,-0.8 4.63,-1.26 6.38,-1.25 1.05,0 1.83,0.15 2.62,0.45 1.13,0.46 2.18,1.27 3.23,2.8 1.05,1.54 2.01,3.81 2.88,6.95 1.66,5.65 3.32,14.42 4.89,24.32 2.44,14.86 4.72,32.3 6.29,46.03 0.87,6.86 1.57,12.79 2.01,17.01 0.26,2.1 0.44,3.78 0.52,4.93 0.09,1.14 0.17,1.77 0.17,1.77l2.1 -0.22 -0.26 -2.04c0,0 -0.52,0.05 -1.49,0.14 -15.11,1.37 -139.76,12.34 -250.26,12.34 -16.21,0 -32.13,-0.24 -47.34,-0.78 -62.98,-2.22 -97.28,-4.94 -115.79,-7.11 -9.25,-1.08 -14.54,-2.03 -17.48,-2.68 -1.47,-0.32 -2.34,-0.58 -2.81,-0.74 -0.23,-0.07 -0.37,-0.13 -0.42,-0.15l-0.03 -0.02 -0.57 1.18 0.65 -1.13 -0.08 -0.04 -0.57 1.18 0.65 -1.13 -1.01 1.78 2.04 0.18 6.73 -72.07 0 -0.09 -2.04 0 -2.04 -0.19 -6.84 73.29 1.14 0.66c0.33,0.17 1.17,0.59 4.31,1.3 4.7,1.05 14.54,2.67 35.05,4.47 20.51,1.79 51.68,3.75 98.95,5.42 15.28,0.54 31.23,0.78 47.48,0.78 118.18,0 252.09,-12.48 252.18,-12.49l2.01 -0.19 -0.18 -2.05c0,-0.01 -1.92,-17.82 -4.54,-38.54 -1.31,-10.36 -2.88,-21.46 -4.54,-31.43 -1.57,-9.98 -3.23,-18.81 -4.89,-24.77 -1.31,-4.53 -2.88,-7.77 -4.98,-9.99 -1.05,-1.1 -2.27,-1.93 -3.58,-2.46 -1.4,-0.52 -2.8,-0.74 -4.19,-0.74 -2.36,0 -4.89,0.57 -7.6,1.44 -4.02,1.28 -8.56,3.25 -13.98,5.21 -5.24,1.97 -11.36,3.96 -18.35,5.34 -6.38,1.26 -15.55,2.58 -26.73,3.84 -33.46,3.79 -84.94,7.09 -135.35,7.09 -11.28,0 -22.51,-0.17 -33.46,-0.53 -38.13,-1.25 -71.16,-5.25 -96.3,-9.73 -12.57,-2.25 -23.17,-4.61 -31.45,-6.81 -4.13,-1.1 -7.69,-2.16 -10.6,-3.13 -2.92,-0.97 -5.21,-1.87 -6.77,-2.62 -1.22,-0.59 -2.51,-0.89 -3.77,-0.89 -2.03,0 -3.89,0.76 -5.53,1.9 -1.44,1 -2.74,2.31 -3.95,3.82 -2.12,2.64 -3.97,5.91 -5.62,9.33 -2.46,5.14 -4.42,10.66 -5.77,14.91 -1.35,4.25 -2.1,7.23 -2.11,7.27l-0.06 0.25 0 0.26 2.05 0 -2.04 -0.19 2.04 0.19z"/>
  <path class="fil2 str0" d="M466.08 115.32l2.04 0 -2.04 0 1.98 0.5 0.02 -0.1c0.26,-1.01 2.58,-9.84 6.22,-18.29 1.82,-4.22 3.98,-8.34 6.27,-11.29 1.15,-1.47 2.33,-2.63 3.43,-3.38 1.12,-0.75 2.12,-1.09 3.08,-1.09 0.63,0 1.27,0.14 1.99,0.49 1.81,0.86 4.22,1.8 7.24,2.81 10.57,3.54 28.64,7.94 52.5,11.76 23.86,3.82 53.47,7.03 87.01,8.13 11.02,0.37 22.28,0.53 33.6,0.53 33.73,0 67.92,-1.47 96.92,-3.58 14.5,-1.06 27.69,-2.27 38.87,-3.54 11.27,-1.28 20.53,-2.6 27.08,-3.9 9.7,-1.9 17.64,-4.95 24.2,-7.48 3.23,-1.27 6.11,-2.39 8.56,-3.19 2.53,-0.8 4.63,-1.26 6.38,-1.25 1.05,0 1.83,0.15 2.62,0.45 1.13,0.46 2.18,1.27 3.23,2.8 1.05,1.54 2.01,3.81 2.88,6.95 1.66,5.65 3.32,14.42 4.89,24.32 2.44,14.86 4.72,32.3 6.29,46.03 0.87,6.86 1.57,12.79 2.01,17.01 0.26,2.1 0.44,3.78 0.52,4.93 0.09,1.14 0.17,1.77 0.17,1.77l2.1 -0.22 -0.26 -2.04c0,0 -0.52,0.05 -1.49,0.14 -15.11,1.37 -139.76,12.34 -250.26,12.34 -16.21,0 -32.13,-0.24 -47.34,-0.78 -62.98,-2.22 -97.28,-4.94 -115.79,-7.11 -9.25,-1.08 -14.54,-2.03 -17.48,-2.68 -1.47,-0.32 -2.34,-0.58 -2.81,-0.74 -0.23,-0.07 -0.37,-0.13 -0.42,-0.15l-0.03 -0.02 -0.57 1.18 0.65 -1.13 -0.08 -0.04 -0.57 1.18 0.65 -1.13 -1.01 1.78 2.04 0.18 6.73 -72.07 0 -0.09 -2.04 0 -2.04 -0.19 -6.84 73.29 1.14 0.66c0.33,0.17 1.17,0.59 4.31,1.3 4.7,1.05 14.54,2.67 35.05,4.47 20.51,1.79 51.68,3.75 98.95,5.42 15.28,0.54 31.23,0.78 47.48,0.78 118.18,0 252.09,-12.48 252.18,-12.49l2.01 -0.19 -0.18 -2.05c0,-0.01 -1.92,-17.82 -4.54,-38.54 -1.31,-10.36 -2.88,-21.46 -4.54,-31.43 -1.57,-9.98 -3.23,-18.81 -4.89,-24.77 -1.31,-4.53 -2.88,-7.77 -4.98,-9.99 -1.05,-1.1 -2.27,-1.93 -3.58,-2.46 -1.4,-0.52 -2.8,-0.74 -4.19,-0.74 -2.36,0 -4.89,0.57 -7.6,1.44 -4.02,1.28 -8.56,3.25 -13.98,5.21 -5.24,1.97 -11.36,3.96 -18.35,5.34 -6.38,1.26 -15.55,2.58 -26.73,3.84 -33.46,3.79 -84.94,7.09 -135.35,7.09 -11.28,0 -22.51,-0.17 -33.46,-0.53 -38.13,-1.25 -71.16,-5.25 -96.3,-9.73 -12.57,-2.25 -23.17,-4.61 -31.45,-6.81 -4.13,-1.1 -7.69,-2.16 -10.6,-3.13 -2.92,-0.97 -5.21,-1.87 -6.77,-2.62 -1.22,-0.59 -2.51,-0.89 -3.77,-0.89 -2.03,0 -3.89,0.76 -5.53,1.9 -1.44,1 -2.74,2.31 -3.95,3.82 -2.12,2.64 -3.97,5.91 -5.62,9.33 -2.46,5.14 -4.42,10.66 -5.77,14.91 -1.35,4.25 -2.1,7.23 -2.11,7.27l-0.06 0.25 0 0.26 2.05 0 -2.04 -0.19 2.04 0.19"/>
  <path class="fil0" d="M686.16 403.98c0,0 95.22,-70.85 147.89,-156.96 48.13,-79.57 45.95,-107.91 45.95,-127.53 0,-19.62 -5.68,-35.97 -5.68,-39.25 0,-3.27 14.67,8.73 19.83,19.63 5.07,10.89 26.03,38.69 48.13,54.5 22.1,15.8 47.61,32.16 54.42,45.23 6.81,13.09 -16.42,84.48 -35.73,130.26 -19.22,45.78 -86.13,161.32 -104.82,157.51 -18.69,-3.82 -81.59,-42.52 -120.72,-60.5 -39.07,-17.98 -47.57,-16.34 -49.28,-22.89z"/>
  <path class="fil1" d="M686.16 403.98l1.22 1.64c0.04,-0.03 23.89,-17.79 54.34,-46.34 30.49,-28.55 67.61,-67.89 94.08,-111.2l0 -0.01c22.1,-36.45 33.63,-62.26 39.66,-81.49 3.06,-9.62 4.72,-17.59 5.59,-24.41 0.87,-6.82 0.96,-12.47 0.96,-17.4 0,-1.86 0,-3.62 0,-5.28 0,-10.01 -1.49,-19.14 -2.88,-26.16 -0.7,-3.51 -1.4,-6.5 -1.92,-8.79 -0.26,-1.14 -0.52,-2.11 -0.7,-2.86 0,-0.37 -0.09,-0.69 -0.09,-0.94 -0.09,-0.25 -0.09,-0.43 -0.09,-0.49l-1.31 0 1.22 0.42c0.09,-0.19 0.09,-0.33 0.09,-0.42l-1.31 0 1.22 0.42 -1.49 -0.52 1.22 0.99c0.17,-0.16 0.26,-0.33 0.26,-0.47l-1.49 -0.52 1.22 0.99 -1.22 -1 0.52 1.52c0.26,-0.09 0.52,-0.27 0.7,-0.52l-1.22 -1 0.52 1.52 -0.44 -1.25 0 1.34c0.09,0 0.26,-0.01 0.44,-0.1l-0.44 -1.25 0 1.34 0 -0.59 -0.17 0.59 0.17 0.01 0 -0.59 -0.17 0.59c0,0 0.17,0.02 0.35,0.1 0.26,0.14 0.78,0.41 1.4,0.8 1.05,0.69 2.36,1.72 3.84,2.99 2.1,1.9 4.54,4.34 6.64,6.98 2.18,2.63 4.11,5.47 5.42,8.13 1.31,2.9 3.67,6.74 6.73,11.18 9.17,13.33 25.16,32.02 42.1,44.11 11.01,7.92 22.89,15.95 32.84,23.6 4.98,3.82 9.43,7.54 13.02,11.08 3.58,3.53 6.38,6.88 7.86,9.85 0.26,0.52 0.52,1.34 0.7,2.4 0.18,1.07 0.26,2.36 0.26,3.86 0,5.43 -1.22,13.38 -3.32,22.77 -6.38,28.19 -20.79,69.45 -33.37,99.49 -4.72,11.16 -12.32,26.61 -21.4,43.45 -13.54,25.27 -30.4,53.72 -45.68,75.79 -7.69,11.03 -14.94,20.47 -21.05,27.07 -3.14,3.3 -5.94,5.89 -8.39,7.6 -1.22,0.85 -2.27,1.48 -3.23,1.88 -0.96,0.4 -1.75,0.57 -2.27,0.56 -0.18,0 -0.35,-0.02 -0.52,-0.05 -2.18,-0.43 -5.07,-1.41 -8.65,-2.85 -6.12,-2.51 -14.06,-6.37 -23.06,-11 -13.36,-6.95 -29.09,-15.61 -44.64,-24.01 -15.63,-8.4 -31.01,-16.55 -43.94,-22.49 -19.61,-9.02 -31.62,-13.15 -38.82,-15.8 -3.59,-1.31 -5.96,-2.28 -7.31,-3.15 -0.68,-0.43 -1.1,-0.82 -1.39,-1.2 -0.3,-0.38 -0.49,-0.79 -0.65,-1.4l-1.98 0.52 1.22 1.64 -1.22 -1.64 -1.98 0.52c0.26,1.02 0.7,2 1.35,2.85 0.57,0.74 1.28,1.38 2.09,1.93 1.43,0.97 3.18,1.76 5.49,2.66 3.47,1.35 8.22,2.97 14.93,5.55 6.72,2.57 15.37,6.1 26.6,11.24 19.39,8.94 44.9,23.09 67.87,35.5 11.44,6.2 22.28,11.97 31.53,16.44 4.54,2.24 8.74,4.15 12.41,5.63 3.67,1.49 6.73,2.54 9.26,3.07 0.44,0.09 0.96,0.13 1.4,0.13 1.75,-0.01 3.41,-0.58 5.15,-1.51 3.32,-1.76 6.9,-4.83 10.92,-8.97 6.9,-7.25 14.94,-17.78 23.41,-30.14 12.75,-18.52 26.38,-41.1 38.26,-62.53 11.97,-21.45 22.1,-41.72 28.04,-55.7 8.47,-20.17 17.73,-45.27 24.81,-68.22 3.58,-11.48 6.64,-22.42 8.82,-31.96 2.1,-9.55 3.41,-17.66 3.41,-23.66 0,-1.66 -0.09,-3.17 -0.35,-4.52 -0.18,-1.35 -0.52,-2.56 -1.05,-3.63 -1.92,-3.57 -4.89,-7.17 -8.65,-10.88 -5.68,-5.56 -13.19,-11.36 -21.23,-17.26 -8.12,-5.9 -16.95,-11.91 -25.16,-17.82 -10.83,-7.75 -21.58,-18.54 -30.14,-28.74 -4.28,-5.09 -8.04,-10.04 -11.01,-14.37 -2.97,-4.32 -5.16,-8.04 -6.38,-10.6 -2.44,-5.19 -6.73,-10.34 -10.74,-14.3 -2.01,-1.98 -4.02,-3.65 -5.68,-4.87 -0.87,-0.61 -1.66,-1.11 -2.36,-1.48 -0.35,-0.19 -0.79,-0.35 -1.14,-0.47 -0.35,-0.12 -0.7,-0.23 -1.22,-0.23 -0.26,0 -0.52,0.03 -0.87,0.14 -0.26,0.08 -0.52,0.2 -0.78,0.38 -0.35,0.27 -0.61,0.66 -0.79,1.04 -0.09,0.37 -0.17,0.73 -0.17,1.02 0,0.36 0.09,0.68 0.09,1.05 0.18,1.33 0.61,3.14 1.22,5.54 1.66,7.13 4.37,19.13 4.37,32.66 0,1.69 0,3.45 0,5.28 0,4.86 -0.09,10.29 -0.96,16.88 -1.22,9.86 -4.19,22.32 -10.92,39.13 -6.73,16.82 -17.21,37.97 -33.72,65.17l0 -0.01c-26.2,42.8 -63.07,81.96 -93.38,110.34 -15.13,14.2 -28.64,25.73 -38.37,33.69 -4.86,3.97 -8.77,7.07 -11.47,9.16 -1.34,1.05 -2.38,1.85 -3.09,2.38 -0.35,0.27 -0.62,0.47 -0.79,0.6 -0.18,0.14 -0.27,0.2 -0.27,0.2l-1.1 0.82 0.35 1.34 1.98 -0.52z"/>
  <path class="fil2 str0" d="M686.16 403.98l1.22 1.64c0.04,-0.03 23.89,-17.79 54.34,-46.34 30.49,-28.55 67.61,-67.89 94.08,-111.2l0 -0.01c22.1,-36.45 33.63,-62.26 39.66,-81.49 3.06,-9.62 4.72,-17.59 5.59,-24.41 0.87,-6.82 0.96,-12.47 0.96,-17.4 0,-1.86 0,-3.62 0,-5.28 0,-10.01 -1.49,-19.14 -2.88,-26.16 -0.7,-3.51 -1.4,-6.5 -1.92,-8.79 -0.26,-1.14 -0.52,-2.11 -0.7,-2.86 0,-0.37 -0.09,-0.69 -0.09,-0.94 -0.09,-0.25 -0.09,-0.43 -0.09,-0.49l-1.31 0 1.22 0.42c0.09,-0.19 0.09,-0.33 0.09,-0.42l-1.31 0 1.22 0.42 -1.49 -0.52 1.22 0.99c0.17,-0.16 0.26,-0.33 0.26,-0.47l-1.49 -0.52 1.22 0.99 -1.22 -1 0.52 1.52c0.26,-0.09 0.52,-0.27 0.7,-0.52l-1.22 -1 0.52 1.52 -0.44 -1.25 0 1.34c0.09,0 0.26,-0.01 0.44,-0.1l-0.44 -1.25 0 1.34 0 -0.59 -0.17 0.59 0.17 0.01 0 -0.59 -0.17 0.59c0,0 0.17,0.02 0.35,0.1 0.26,0.14 0.78,0.41 1.4,0.8 1.05,0.69 2.36,1.72 3.84,2.99 2.1,1.9 4.54,4.34 6.64,6.98 2.18,2.63 4.11,5.47 5.42,8.13 1.31,2.9 3.67,6.74 6.73,11.18 9.17,13.33 25.16,32.02 42.1,44.11 11.01,7.92 22.89,15.95 32.84,23.6 4.98,3.82 9.43,7.54 13.02,11.08 3.58,3.53 6.38,6.88 7.86,9.85 0.26,0.52 0.52,1.34 0.7,2.4 0.18,1.07 0.26,2.36 0.26,3.86 0,5.43 -1.22,13.38 -3.32,22.77 -6.38,28.19 -20.79,69.45 -33.37,99.49 -4.72,11.16 -12.32,26.61 -21.4,43.45 -13.54,25.27 -30.4,53.72 -45.68,75.79 -7.69,11.03 -14.94,20.47 -21.05,27.07 -3.14,3.3 -5.94,5.89 -8.39,7.6 -1.22,0.85 -2.27,1.48 -3.23,1.88 -0.96,0.4 -1.75,0.57 -2.27,0.56 -0.18,0 -0.35,-0.02 -0.52,-0.05 -2.18,-0.43 -5.07,-1.41 -8.65,-2.85 -6.12,-2.51 -14.06,-6.37 -23.06,-11 -13.36,-6.95 -29.09,-15.61 -44.64,-24.01 -15.63,-8.4 -31.01,-16.55 -43.94,-22.49 -19.61,-9.02 -31.62,-13.15 -38.82,-15.8 -3.59,-1.31 -5.96,-2.28 -7.31,-3.15 -0.68,-0.43 -1.1,-0.82 -1.39,-1.2 -0.3,-0.38 -0.49,-0.79 -0.65,-1.4l-1.98 0.52 1.22 1.64 -1.22 -1.64 -1.98 0.52c0.26,1.02 0.7,2 1.35,2.85 0.57,0.74 1.28,1.38 2.09,1.93 1.43,0.97 3.18,1.76 5.49,2.66 3.47,1.35 8.22,2.97 14.93,5.55 6.72,2.57 15.37,6.1 26.6,11.24 19.39,8.94 44.9,23.09 67.87,35.5 11.44,6.2 22.28,11.97 31.53,16.44 4.54,2.24 8.74,4.15 12.41,5.63 3.67,1.49 6.73,2.54 9.26,3.07 0.44,0.09 0.96,0.13 1.4,0.13 1.75,-0.01 3.41,-0.58 5.15,-1.51 3.32,-1.76 6.9,-4.83 10.92,-8.97 6.9,-7.25 14.94,-17.78 23.41,-30.14 12.75,-18.52 26.38,-41.1 38.26,-62.53 11.97,-21.45 22.1,-41.72 28.04,-55.7 8.47,-20.17 17.73,-45.27 24.81,-68.22 3.58,-11.48 6.64,-22.42 8.82,-31.96 2.1,-9.55 3.41,-17.66 3.41,-23.66 0,-1.66 -0.09,-3.17 -0.35,-4.52 -0.18,-1.35 -0.52,-2.56 -1.05,-3.63 -1.92,-3.57 -4.89,-7.17 -8.65,-10.88 -5.68,-5.56 -13.19,-11.36 -21.23,-17.26 -8.12,-5.9 -16.95,-11.91 -25.16,-17.82 -10.83,-7.75 -21.58,-18.54 -30.14,-28.74 -4.28,-5.09 -8.04,-10.04 -11.01,-14.37 -2.97,-4.32 -5.16,-8.04 -6.38,-10.6 -2.44,-5.19 -6.73,-10.34 -10.74,-14.3 -2.01,-1.98 -4.02,-3.65 -5.68,-4.87 -0.87,-0.61 -1.66,-1.11 -2.36,-1.48 -0.35,-0.19 -0.79,-0.35 -1.14,-0.47 -0.35,-0.12 -0.7,-0.23 -1.22,-0.23 -0.26,0 -0.52,0.03 -0.87,0.14 -0.26,0.08 -0.52,0.2 -0.78,0.38 -0.35,0.27 -0.61,0.66 -0.79,1.04 -0.09,0.37 -0.17,0.73 -0.17,1.02 0,0.36 0.09,0.68 0.09,1.05 0.18,1.33 0.61,3.14 1.22,5.54 1.66,7.13 4.37,19.13 4.37,32.66 0,1.69 0,3.45 0,5.28 0,4.86 -0.09,10.29 -0.96,16.88 -1.22,9.86 -4.19,22.32 -10.92,39.13 -6.73,16.82 -17.21,37.97 -33.72,65.17l0 -0.01c-26.2,42.8 -63.07,81.96 -93.38,110.34 -15.13,14.2 -28.64,25.73 -38.37,33.69 -4.86,3.97 -8.77,7.07 -11.47,9.16 -1.34,1.05 -2.38,1.85 -3.09,2.38 -0.35,0.27 -0.62,0.47 -0.79,0.6 -0.18,0.14 -0.27,0.2 -0.27,0.2l-1.1 0.82 0.35 1.34 1.98 -0.52"/>
  <path class="fil0" d="M681.21 403.98c0,0 -98.56,-70.85 -153.12,-156.96 -49.86,-79.57 -47.52,-107.91 -47.52,-127.53 0,-19.62 5.87,-35.97 5.87,-39.25 0,-3.27 -15.25,8.73 -20.54,19.63 -5.28,10.89 -26.98,38.69 -49.87,54.5 -22.88,15.8 -49.28,32.16 -56.31,45.23 -7.04,13.09 17.02,84.48 36.96,130.26 19.95,45.78 89.18,161.32 108.53,157.51 19.36,-3.82 84.48,-42.52 124.96,-60.5 40.48,-17.98 49.28,-16.34 51.04,-22.89z"/>
  <path class="fil1" d="M681.21 403.98l1.2 -1.66c0,0 -0.09,-0.07 -0.28,-0.2 -2.86,-2.09 -27.81,-20.38 -58.61,-48.54 -30.79,-28.15 -67.44,-66.19 -93.7,-107.65l0.01 0.01c-22.74,-36.27 -34.54,-61.79 -40.66,-80.6 -3.06,-9.4 -4.7,-17.12 -5.57,-23.69 -0.88,-6.58 -1.01,-12.01 -1.01,-16.87 0,-1.83 0.02,-3.59 0.02,-5.28 0,-9.61 1.44,-18.47 2.89,-25.33 0.72,-3.43 1.45,-6.38 2,-8.68 0.28,-1.16 0.52,-2.16 0.68,-3.01 0.09,-0.43 0.16,-0.81 0.21,-1.17 0.05,-0.37 0.09,-0.7 0.09,-1.06 0,-0.27 -0.04,-0.57 -0.16,-0.92 -0.09,-0.25 -0.23,-0.52 -0.42,-0.75 -0.28,-0.36 -0.68,-0.61 -1.05,-0.75 -0.37,-0.13 -0.69,-0.17 -0.98,-0.17 -0.5,0 -0.88,0.1 -1.26,0.22 -0.71,0.23 -1.38,0.58 -2.13,1.02 -1.31,0.79 -2.82,1.89 -4.46,3.25 -2.45,2.05 -5.16,4.66 -7.64,7.56 -2.49,2.9 -4.77,6.06 -6.32,9.27 -1.23,2.54 -3.54,6.27 -6.63,10.59 -9.28,12.99 -25.71,31.49 -42.57,43.12 -11.41,7.89 -23.74,15.93 -34.16,23.68 -5.2,3.88 -9.94,7.69 -13.85,11.39 -3.91,3.7 -7.01,7.3 -8.94,10.88 -0.58,1.07 -0.93,2.28 -1.16,3.64 -0.24,1.35 -0.33,2.86 -0.33,4.53 0,6.01 1.33,14.13 3.55,23.68 6.7,28.61 21.64,69.92 34.83,100.18 4.94,11.37 12.86,26.88 22.27,43.81 14.12,25.39 31.63,53.92 47.58,76.18 7.98,11.13 15.56,20.69 22.21,27.53 3.33,3.42 6.41,6.18 9.26,8.13 1.42,0.97 2.8,1.75 4.13,2.3 1.34,0.55 2.65,0.87 3.97,0.87 0.46,0 0.92,-0.03 1.37,-0.13 2.63,-0.52 5.84,-1.57 9.62,-3.06 6.6,-2.59 14.9,-6.5 24.23,-11.15 13.98,-6.99 30.25,-15.65 46.34,-24.05 16.09,-8.39 32.01,-16.5 45.2,-22.37 20.18,-8.96 32.39,-13.01 39.9,-15.68 3.76,-1.34 6.37,-2.32 8.37,-3.53 0.99,-0.61 1.84,-1.3 2.52,-2.16 0.67,-0.85 1.14,-1.82 1.41,-2.85l0.37 -1.37 -1.14 -0.82 -1.2 1.66 -1.97 -0.53c-0.16,0.6 -0.36,1.01 -0.66,1.39 -0.26,0.33 -0.63,0.67 -1.2,1.05 -0.99,0.65 -2.58,1.37 -4.87,2.24 -3.43,1.3 -8.42,2.93 -15.43,5.54 -7.01,2.59 -16.07,6.16 -27.74,11.34 -20.35,9.05 -46.76,23.23 -70.51,35.62 -11.87,6.19 -23.08,11.94 -32.49,16.36 -4.7,2.21 -8.96,4.09 -12.61,5.52 -3.64,1.44 -6.7,2.43 -8.91,2.85 -0.18,0.03 -0.37,0.05 -0.59,0.05 -0.82,0.01 -2.01,-0.3 -3.46,-1.05 -2.72,-1.38 -6.24,-4.23 -10.18,-8.2 -6.91,-6.96 -15.16,-17.37 -23.86,-29.62 -13.05,-18.37 -27.11,-40.86 -39.39,-62.21 -12.29,-21.34 -22.83,-41.55 -28.8,-55.28 -8.74,-20.04 -18.27,-45.04 -25.61,-67.85 -3.67,-11.4 -6.79,-22.25 -8.98,-31.64 -2.2,-9.38 -3.46,-17.33 -3.45,-22.75 -0.01,-1.49 0.09,-2.79 0.27,-3.85 0.18,-1.05 0.45,-1.86 0.73,-2.38 1.59,-2.96 4.42,-6.32 8.16,-9.85 5.6,-5.31 13.19,-11.02 21.52,-16.88 8.33,-5.85 17.41,-11.85 26,-17.8 11.65,-8.05 22.89,-19.04 31.92,-29.43 4.52,-5.19 8.47,-10.23 11.65,-14.67 3.18,-4.45 5.56,-8.29 6.98,-11.2 2.15,-4.45 6.31,-9.4 10.25,-13.1 1.97,-1.86 3.88,-3.42 5.4,-4.48 0.76,-0.52 1.43,-0.93 1.92,-1.17 0.24,-0.11 0.44,-0.19 0.55,-0.24l0.1 -0.02 -0.04 -0.2 0.03 0.21 0.02 -0.01 -0.04 -0.2 0.03 0.21 -0.08 -0.73 0 0.73 0.08 0 -0.08 -0.73 0 0.73 0 -1.27 -0.38 1.2c0.18,0.06 0.31,0.07 0.38,0.07l0 -1.27 -0.38 1.2 0.49 -1.53 -1.35 0.85c0.2,0.34 0.59,0.6 0.86,0.67l0.49 -1.53 -1.35 0.85 1.19 -0.76 -1.42 0c0,0.12 0.02,0.42 0.24,0.76l1.19 -0.76 -1.42 0c0,0.06 -0.01,0.24 -0.04,0.48 -0.13,0.94 -0.57,2.78 -1.14,5.16 -1.73,7.17 -4.68,19.52 -4.68,33.61 0,1.67 -0.02,3.42 -0.02,5.28 0,4.93 0.12,10.59 1.04,17.41 1.36,10.23 4.51,23.06 11.58,40.14 7.09,17.09 18.09,38.43 35.23,65.78l0.01 0.02 0 -0.01c27.44,43.31 65.83,82.64 97.37,111.2 31.54,28.55 56.24,46.3 56.28,46.33l1.19 -1.66 -1.97 -0.53 1.97 0.53z"/>
  <path class="fil2 str0" d="M681.21 403.98l1.2 -1.66c0,0 -0.09,-0.07 -0.28,-0.2 -2.86,-2.09 -27.81,-20.38 -58.61,-48.54 -30.79,-28.15 -67.44,-66.19 -93.7,-107.65l0.01 0.01c-22.74,-36.27 -34.54,-61.79 -40.66,-80.6 -3.06,-9.4 -4.7,-17.12 -5.57,-23.69 -0.88,-6.58 -1.01,-12.01 -1.01,-16.87 0,-1.83 0.02,-3.59 0.02,-5.28 0,-9.61 1.44,-18.47 2.89,-25.33 0.72,-3.43 1.45,-6.38 2,-8.68 0.28,-1.16 0.52,-2.16 0.68,-3.01 0.09,-0.43 0.16,-0.81 0.21,-1.17 0.05,-0.37 0.09,-0.7 0.09,-1.06 0,-0.27 -0.04,-0.57 -0.16,-0.92 -0.09,-0.25 -0.23,-0.52 -0.42,-0.75 -0.28,-0.36 -0.68,-0.61 -1.05,-0.75 -0.37,-0.13 -0.69,-0.17 -0.98,-0.17 -0.5,0 -0.88,0.1 -1.26,0.22 -0.71,0.23 -1.38,0.58 -2.13,1.02 -1.31,0.79 -2.82,1.89 -4.46,3.25 -2.45,2.05 -5.16,4.66 -7.64,7.56 -2.49,2.9 -4.77,6.06 -6.32,9.27 -1.23,2.54 -3.54,6.27 -6.63,10.59 -9.28,12.99 -25.71,31.49 -42.57,43.12 -11.41,7.89 -23.74,15.93 -34.16,23.68 -5.2,3.88 -9.94,7.69 -13.85,11.39 -3.91,3.7 -7.01,7.3 -8.94,10.88 -0.58,1.07 -0.93,2.28 -1.16,3.64 -0.24,1.35 -0.33,2.86 -0.33,4.53 0,6.01 1.33,14.13 3.55,23.68 6.7,28.61 21.64,69.92 34.83,100.18 4.94,11.37 12.86,26.88 22.27,43.81 14.12,25.39 31.63,53.92 47.58,76.18 7.98,11.13 15.56,20.69 22.21,27.53 3.33,3.42 6.41,6.18 9.26,8.13 1.42,0.97 2.8,1.75 4.13,2.3 1.34,0.55 2.65,0.87 3.97,0.87 0.46,0 0.92,-0.03 1.37,-0.13 2.63,-0.52 5.84,-1.57 9.62,-3.06 6.6,-2.59 14.9,-6.5 24.23,-11.15 13.98,-6.99 30.25,-15.65 46.34,-24.05 16.09,-8.39 32.01,-16.5 45.2,-22.37 20.18,-8.96 32.39,-13.01 39.9,-15.68 3.76,-1.34 6.37,-2.32 8.37,-3.53 0.99,-0.61 1.84,-1.3 2.52,-2.16 0.67,-0.85 1.14,-1.82 1.41,-2.85l0.37 -1.37 -1.14 -0.82 -1.2 1.66 -1.97 -0.53c-0.16,0.6 -0.36,1.01 -0.66,1.39 -0.26,0.33 -0.63,0.67 -1.2,1.05 -0.99,0.65 -2.58,1.37 -4.87,2.24 -3.43,1.3 -8.42,2.93 -15.43,5.54 -7.01,2.59 -16.07,6.16 -27.74,11.34 -20.35,9.05 -46.76,23.23 -70.51,35.62 -11.87,6.19 -23.08,11.94 -32.49,16.36 -4.7,2.21 -8.96,4.09 -12.61,5.52 -3.64,1.44 -6.7,2.43 -8.91,2.85 -0.18,0.03 -0.37,0.05 -0.59,0.05 -0.82,0.01 -2.01,-0.3 -3.46,-1.05 -2.72,-1.38 -6.24,-4.23 -10.18,-8.2 -6.91,-6.96 -15.16,-17.37 -23.86,-29.62 -13.05,-18.37 -27.11,-40.86 -39.39,-62.21 -12.29,-21.34 -22.83,-41.55 -28.8,-55.28 -8.74,-20.04 -18.27,-45.04 -25.61,-67.85 -3.67,-11.4 -6.79,-22.25 -8.98,-31.64 -2.2,-9.38 -3.46,-17.33 -3.45,-22.75 -0.01,-1.49 0.09,-2.79 0.27,-3.85 0.18,-1.05 0.45,-1.86 0.73,-2.38 1.59,-2.96 4.42,-6.32 8.16,-9.85 5.6,-5.31 13.19,-11.02 21.52,-16.88 8.33,-5.85 17.41,-11.85 26,-17.8 11.65,-8.05 22.89,-19.04 31.92,-29.43 4.52,-5.19 8.47,-10.23 11.65,-14.67 3.18,-4.45 5.56,-8.29 6.98,-11.2 2.15,-4.45 6.31,-9.4 10.25,-13.1 1.97,-1.86 3.88,-3.42 5.4,-4.48 0.76,-0.52 1.43,-0.93 1.92,-1.17 0.24,-0.11 0.44,-0.19 0.55,-0.24l0.1 -0.02 -0.04 -0.2 0.03 0.21 0.02 -0.01 -0.04 -0.2 0.03 0.21 -0.08 -0.73 0 0.73 0.08 0 -0.08 -0.73 0 0.73 0 -1.27 -0.38 1.2c0.18,0.06 0.31,0.07 0.38,0.07l0 -1.27 -0.38 1.2 0.49 -1.53 -1.35 0.85c0.2,0.34 0.59,0.6 0.86,0.67l0.49 -1.53 -1.35 0.85 1.19 -0.76 -1.42 0c0,0.12 0.02,0.42 0.24,0.76l1.19 -0.76 -1.42 0c0,0.06 -0.01,0.24 -0.04,0.48 -0.13,0.94 -0.57,2.78 -1.14,5.16 -1.73,7.17 -4.68,19.52 -4.68,33.61 0,1.67 -0.02,3.42 -0.02,5.28 0,4.93 0.12,10.59 1.04,17.41 1.36,10.23 4.51,23.06 11.58,40.14 7.09,17.09 18.09,38.43 35.23,65.78l0.01 0.02 0 -0.01c27.44,43.31 65.83,82.64 97.37,111.2 31.54,28.55 56.24,46.3 56.28,46.33l1.19 -1.66 -1.97 -0.53 1.97 0.53"/>
  <path class="fil2 str1" d="M1209.49 968.11l-1040.75 0c-86.36,0 -156.36,-70.01 -156.36,-156.36l0 -643c0,-86.36 70,-156.37 156.36,-156.37l1040.75 0c86.39,0 156.36,70.01 156.36,156.37l0 643c0,86.36 -69.97,156.36 -156.36,156.36z"/>
 </g>
</svg>
