<?xml version="1.0" encoding="UTF-8"?>
<!DOCTYPE svg PUBLIC "-//W3C//DTD SVG 1.1//EN" "http://www.w3.org/Graphics/SVG/1.1/DTD/svg11.dtd">
<!-- Creator: CorelDRAW -->
<svg xmlns="http://www.w3.org/2000/svg" xml:space="preserve" width="55.6624mm" height="39.5978mm" version="1.1" style="shape-rendering:geometricPrecision; text-rendering:geometricPrecision; image-rendering:optimizeQuality; fill-rule:evenodd; clip-rule:evenodd"
viewBox="0 0 862.79 613.78"
 xmlns:xlink="http://www.w3.org/1999/xlink"
 xmlns:xodm="http://www.corel.com/coreldraw/odm/2003">
 <defs>
  <style type="text/css">
   <![CDATA[
    .str3 {stroke:#222124;stroke-width:5.58;stroke-miterlimit:10}
    .str4 {stroke:#7B7E7F;stroke-width:15.5;stroke-miterlimit:10}
    .str0 {stroke:#222124;stroke-width:8.02;stroke-miterlimit:10}
    .str2 {stroke:#222124;stroke-width:7.28;stroke-miterlimit:10}
    .str1 {stroke:#222124;stroke-width:7.39;stroke-miterlimit:10}
    .fil1 {fill:none;fill-rule:nonzero}
    .fil0 {fill:#FEFEFE}
   ]]>
  </style>
 </defs>
 <g id="Capa_x0020_1">
  <metadata id="CorelCorpID_0Corel-Layer"/>
  <path class="fil0" d="M9.23 235.25l199.58 -103.43 45.99 -36.24c0,0 26.45,7.5 66.8,7.5 40.35,0 235.18,0.06 248.78,-1.89 13.6,-1.96 31.72,-5.49 31.72,-5.49l48.19 35.72 203.27 104.62 0 213.64 0 44.56c0,0 -0.24,27.42 -1.97,34.53 -1.73,7.11 -5.87,36.72 -30.19,52.9 -24.32,16.18 -27.87,25.34 -74.75,25.34 -46.88,0 -617.96,0 -617.96,0 0,0 -51.12,5.38 -78.35,-16.1 -27.23,-21.48 -41.94,-44.9 -44.08,-81.78l2.97 -273.88z"/>
  <path class="fil1 str0" d="M649.28 129.19l-46.11 -34.59c-20.42,4.85 -41.67,7.5 -63.57,7.5l-220 0c-21.9,0 -43.16,-2.66 -63.57,-7.5l-46.11 34.59"/>
  <path class="fil1 str1" d="M252.99 102.15c54.02,62.9 108.04,125.8 162.06,188.7 61.11,-64.83 122.21,-129.66 183.32,-194.48"/>
  <path class="fil1 str1" d="M211.22 132.85c68.53,78.04 204,237.11 204,237.11 0,0 27.23,-25.05 40.95,-39.17 63.79,-65.6 127.74,-131.07 188.82,-199.22"/>
  <path class="fil1 str2" d="M289.1 142.57c0,0 147.43,21.96 265.18,0"/>
  <path class="fil1 str3" d="M302.04 160.04c0,0 129.61,13.88 233.12,0"/>
  <path class="fil1 str0" d="M649.28 129.19c0,0 121.75,68.37 202.53,105.08"/>
  <path class="fil1 str0" d="M212.99 129.19c0,0 -121.76,68.37 -202.53,105.08"/>
  <path class="fil1 str4" d="M757.16 606.03l-651.53 0c-54.06,0 -97.88,-43.82 -97.88,-97.88l0 -402.52c0,-54.06 43.82,-97.89 97.88,-97.89l651.53 0c54.06,0 97.88,43.83 97.88,97.89l0 402.52c0,54.06 -43.82,97.88 -97.88,97.88z"/>
 </g>
</svg>
